<svg xmlns="http://www.w3.org/2000/svg" viewBox="0 0 256.96 80.11"><defs><style>.cls-1{fill:#fff;}</style></defs><title>Logo_long</title><g id="Warstwa_2" data-name="Warstwa 2"><g id="Warstwa_1-2" data-name="Warstwa 1"><path class="cls-1" d="M67.39,7.36H2v65.4h65.4ZM1,5.36H69.39V74.75H0V5.36Z"/><path class="cls-1" d="M51,11.74,34.69,2.3,18.34,11.74h0L2,21.17V58.94l16.35,9.44h0l16.35,9.44L51,68.38h0l16.35-9.44V21.17L51,11.74ZM35.19.29,52,10h0l16.85,9.73.5.29v40l-.5.29L52,70.1h0L35.19,79.83l-.5.29-.5-.29L17.35,70.1h0L.5,60.37,0,60.08V20l.5-.29L17.35,10h0L34.19.29l.5-.29Z"/><polygon class="cls-1" points="19.24 23.23 19.24 57.55 50.35 57.55 40.2 27.3 31.38 50.89 29.26 50.9 39.32 23.99 40.3 21.37 41.19 24.02 52.68 58.23 53.12 59.54 51.74 59.54 18.24 59.54 17.25 59.54 17.25 58.54 17.25 23.23 19.24 23.23"/><path class="cls-1" d="M257,32.89l-4.23,6.2v4.57h-1.42V39.09l-4.24-6.2h1.74L252,37.84l3.21-4.95Zm-30.33,1.28h-3.57v9.49h-1.42V34.17H218.1V32.89h8.53ZM192.3,43.84a6.28,6.28,0,0,1-1.7-.2,3.75,3.75,0,0,1-1.17-.54,2.71,2.71,0,0,1-.74-.81,3.88,3.88,0,0,1-.41-1,5.94,5.94,0,0,1-.17-1.09c0-.38,0-.74,0-1.1V32.89h1.42v6.2a6.88,6.88,0,0,0,.19,1.76,2.46,2.46,0,0,0,.54,1.06,1.89,1.89,0,0,0,.89.52,5.33,5.33,0,0,0,2.39,0,1.79,1.79,0,0,0,.87-.53,2.52,2.52,0,0,0,.53-1.06,6.84,6.84,0,0,0,.18-1.75v-6.2h1.43v6.22a9.55,9.55,0,0,1-.19,2,3.56,3.56,0,0,1-.67,1.49,3,3,0,0,1-1.3.93A5.74,5.74,0,0,1,192.3,43.84Zm-25.47-.19h-1.61L164,40.38h-4.51l-1.2,3.27h-1.5l4.13-10.77h1.54Zm-3.27-4.41-1.9-5-1.81,5Zm-27.62,4.41h-8V32.89h7.79v1.28h-6.37v3.27h6v1.29h-6v3.65h6.62Zm-36.7-1.28h2.6q2.55,0,2.55-1.85a2.35,2.35,0,0,0-.13-.83,1.26,1.26,0,0,0-.46-.58,2.23,2.23,0,0,0-.85-.34,6.7,6.7,0,0,0-1.31-.11H99.24Zm0-5h2.39a3.21,3.21,0,0,0,1.75-.38,1.4,1.4,0,0,0,.56-1.26,1.85,1.85,0,0,0-.12-.7,1.1,1.1,0,0,0-.42-.5,2.27,2.27,0,0,0-.75-.3,5.45,5.45,0,0,0-1.14-.1H99.24Zm6.64,3.13a2.79,2.79,0,0,1-1,2.32,4.79,4.79,0,0,1-3,.8h-4V32.89h3.83a5.67,5.67,0,0,1,1.52.19,3.55,3.55,0,0,1,1.16.55,2.41,2.41,0,0,1,1,2,2.42,2.42,0,0,1-1.55,2.29,2.83,2.83,0,0,1,.91.38,2.57,2.57,0,0,1,.65.59,2.53,2.53,0,0,1,.4.76A2.92,2.92,0,0,1,105.87,40.53Z"/></g></g></svg>