<?xml version="1.0" encoding="utf-8"?>
<!-- Generator: Adobe Illustrator 21.0.0, SVG Export Plug-In . SVG Version: 6.00 Build 0)  -->
<svg version="1.1" id="logoipsum" xmlns="http://www.w3.org/2000/svg" xmlns:xlink="http://www.w3.org/1999/xlink" x="0px" y="0px"
	 viewBox="0 0 337.6 100" style="enable-background:new 0 0 337.6 100;" xml:space="preserve">
<style type="text/css">
	.st0{fill:#FFFFFF;}
</style>
<title>logoipsum-4</title>
<path class="st0" d="M100.4,35.5h8.1v32.7h-8.1V35.5z M111.7,56c0-8.1,5-13,12.6-13s12.6,4.9,12.6,13s-4.9,13-12.6,13
	S111.7,64.3,111.7,56z M128.9,56c0-4.5-1.7-7.1-4.5-7.1c-2.8,0-4.5,2.5-4.5,7.1s1.7,7.1,4.5,7.1C127.2,63,128.9,60.5,128.9,56
	L128.9,56z M140.1,70h7.8c0.7,1.7,2.5,2.8,4.4,2.5c3.1,0,4.7-1.7,4.7-4.1v-4.5h0c-1.4,2.9-4.4,4.6-7.6,4.4c-5.9,0-9.8-4.5-9.8-12.3
	s3.8-12.6,10.1-12.6c3.3-0.2,6.3,1.7,7.6,4.8H157v-4.6h8v24.5c0,5.9-5.2,9.6-12.9,9.6C145.1,77.7,140.6,74.5,140.1,70L140.1,70z
	 M157,56c0-4-1.8-6.4-4.7-6.4c-2.9,0-4.6,2.5-4.6,6.4s1.7,6.2,4.6,6.2C155.3,62.2,157,60.1,157,56z M168.3,56c0-8.1,5-13,12.6-13
	c7.6,0,12.6,4.9,12.6,13s-4.9,13-12.6,13C173.1,69,168.3,64.3,168.3,56L168.3,56z M185.4,56c0-4.5-1.8-7.1-4.5-7.1s-4.5,2.5-4.5,7.1
	s1.7,7.1,4.5,7.1C183.7,63,185.5,60.5,185.4,56L185.4,56z M196.7,37.6c-0.1-2.3,1.7-4.2,3.9-4.3c2.3-0.1,4.2,1.7,4.3,3.9
	c0.1,2.3-1.7,4.2-3.9,4.3c-0.1,0-0.1,0-0.2,0C198.6,41.6,196.8,39.9,196.7,37.6C196.8,37.7,196.8,37.7,196.7,37.6L196.7,37.6z
	 M196.7,43.6h8.2v24.8h-8.1L196.7,43.6z M234.3,56c0,8.1-3.6,12.8-9.8,12.8c-3.2,0.2-6.3-1.6-7.6-4.6h-0.2v12.2h-8.1V43.6h8v4.4h0.2
	c1.3-3,4.3-4.9,7.6-4.8c6.3-0.1,10,4.6,10,12.7L234.3,56z M226.1,56c0-3.9-1.8-6.5-4.7-6.5c-2.8,0-4.6,2.5-4.7,6.5s1.8,6.4,4.7,6.4
	c2.8,0,4.8-2.3,4.8-6.4L226.1,56z M248.1,43c6.8,0,11,3.2,11,8.3h-7.4c0-1.8-1.5-2.9-3.7-2.9c-2.2,0-3.3,0.9-3.3,2.1
	s0.9,1.7,2.8,2.1l5.2,1.1c5,1.1,7.1,3.1,7.1,6.8c0,5-4.7,8.5-11.6,8.5s-11.4-3.3-11.8-8.4h7.8c0.2,1.8,1.7,2.9,4.1,2.9
	c2.4,0,3.5-0.8,3.5-2.1c0-1.3-0.8-1.6-2.7-2l-4.7-1c-4.9-1-7.4-3.6-7.4-7.4c0.2-4.9,4.4-8.1,11.2-8.1L248.1,43z M286.9,68.4h-7.8
	v-4.7h-0.2c-0.9,3.2-3.9,5.3-7.2,5.2c-4.8,0.2-8.8-3.6-8.9-8.4c0-0.3,0-0.7,0-1V43.6h8.1v14.2c0,2.9,1.5,4.5,4.1,4.5
	c2.3,0,4.1-1.9,4.1-4.2c0-0.2,0-0.4,0-0.6v-14h8.1L286.9,68.4z M290.8,43.6h7.9v4.8h0.2c0.9-3.2,3.8-5.3,7.1-5.2
	c3.3-0.3,6.3,2,6.9,5.3h0.4c1-3.3,4.1-5.4,7.6-5.3c4.3-0.2,8,3.2,8.2,7.6c0,0.3,0,0.6,0,0.9v16.8h-8.1V53.6c0-2.5-1.2-3.9-3.5-3.9
	c-1.9,0-3.6,1.5-3.6,3.5c0,0.2,0,0.4,0,0.5v14.7H306V53.5c0-2.5-1.2-3.9-3.5-3.9c-2,0-3.6,1.6-3.6,3.6c0,0.2,0,0.3,0,0.5v14.7h-8.1
	L290.8,43.6z"/>
<path class="st0" d="M94.2,35.7c0-16-13-29-29-29c-8.1,0-15.9,3.4-21.4,9.4H7.3v77.3h77.3V57.2C90.7,51.7,94.2,43.9,94.2,35.7z
	 M79.4,35.7c0,7.8-6.3,14.2-14.1,14.2c-7.8,0-14.2-6.3-14.2-14.1c0-7.8,6.3-14.2,14.1-14.2c0,0,0,0,0,0C73,21.5,79.4,27.9,79.4,35.7
	z M69.7,78.5H22.2V30.9h14.5c-0.3,1.6-0.4,3.1-0.4,4.7c0,16,13,29,29,29c1.5,0,3-0.1,4.5-0.4V78.5z"/>
</svg>
